<?xml version="1.0" encoding="utf-8"?>
<!-- Generator: Adobe Illustrator 21.0.0, SVG Export Plug-In . SVG Version: 6.00 Build 0)  -->
<svg version="1.1" xmlns="http://www.w3.org/2000/svg" xmlns:xlink="http://www.w3.org/1999/xlink" x="0px" y="0px"
	 viewBox="0 0 80 80" style="enable-background:new 0 0 80 80;" xml:space="preserve">
<style type="text/css">
	.st0{fill:#F4F4F4;stroke:#000000;stroke-width:0.25;stroke-miterlimit:10;}
	.st1{fill:none;}
	.st2{fill:#020202;}
	.st3{font-family:'ComicSansMS';}
	.st4{font-size:12px;}
	.st5{fill:#070707;}
	.st6{font-size:6px;}
</style>
<g id="图层_3">
	<path class="st0" d="M67.7,80H12.3c-6.6,0-12-5.4-12-12V12.1c0-6.6,5.4-12,12-12h55.3c6.6,0,12,5.4,12,12V68
		C79.7,74.6,74.3,80,67.7,80z"/>
</g>
<g id="图层_1">
	<rect x="8" y="15.7" class="st1" width="75.2" height="12.5"/>
	<text transform="matrix(1 0 0 1 7.9999 26.1064)" class="st2 st3 st4">Lin lin Geek</text>
	<rect x="13.2" y="37.3" class="st1" width="58.1" height="13.5"/>
	<text transform="matrix(1 0 0 1 13.1815 42.4697)" class="st5 st3 st6">let your dreams fly</text>
</g>
<g id="drone">
	<g>
		<g>
			<path d="M27.2,57.6c0-0.9,0-1.7,0-2.5c0,0,0,0,0.1,0c0,0.3,0.1,0.6,0.1,0.8c0,0.5,0,1,0,1.5c0,0.2,0.1,0.3,0.3,0.3
				c1.7,0,3.4,0.1,5.2,0c1.6-0.1,3.2-0.2,4.9-0.1c2.1,0,4.3-0.1,6.4,0c2.5,0.1,5,0,7.4,0c0.4,0,0.4,0,0.4-0.4c0-0.6,0-1.2,0-1.8
				c0-0.1-0.1-0.3,0.1-0.3c0.2,0,0.1,0.2,0.1,0.3c0,0.6,0,1.2,0,1.8c0,0.1-0.1,0.3,0.1,0.3c0.2,0,0.4,0,0.4-0.3c0-0.6,0-1.2,0-1.8
				c0-0.2,0-0.5,0.4-0.4c-0.7-0.2-1.5-0.3-2.2-0.1c-0.1,0-0.2,0.1-0.3,0.1c-1.4,0-2.8,0.1-4.1-0.1c-0.3,0-0.7-0.2-0.9-0.4
				c-0.1-0.1-0.2-0.1-0.2-0.2c0-0.1,0.1-0.1,0.2-0.1c0.3,0,0.6-0.1,0.9-0.1c0.4,0,0.8,0,1.3,0c0.1,0,0.2,0,0.2,0
				c0-0.1-0.1-0.1-0.1-0.2c0,0-0.1-0.1-0.2-0.1c-0.1-0.1-0.2-0.2-0.1-0.4c0-0.2,0.2-0.2,0.3-0.2c0.7-0.2,1.4-0.3,2.2-0.3
				c1.8,0,3.6,0,5.4,0c0.4,0,0.7,0,1.1,0.1c0.4,0.1,0.7,0.1,1-0.2c0.4-0.4,1.4-0.3,1.8,0.1c0.2,0.2,0.4,0.3,0.7,0.2
				c0.2-0.1,0.4-0.1,0.6,0c1,0,2,0,2.9,0c0.8,0,1.5,0,2.3,0c1,0,2,0,2.9,0c0.2,0,0.4,0,0.4,0.3c0.1,0.2,0,0.4-0.2,0.5
				c-0.1,0.1-0.3,0.2-0.5,0.2c-0.3,0.1-0.7,0.2-1,0.2c-1.7,0.2-3.3,0.1-5,0c-0.4,0-0.9-0.1-1.4-0.1c0.1,0.3,0,0.4-0.2,0.6
				c-0.1,0-0.1,0.1-0.1,0.1c-0.6,0.2-0.6,0.6-0.6,1.1c0,0.2,0,0.4-0.1,0.6c0-0.6,0-1.2,0-1.8c-0.1,0.1-0.1,0.2-0.1,0.3
				c0,0.9,0,1.7,0,2.6c0,0.2,0.1,0.3,0.3,0.3c2.2,0,4.4,0,6.6,0.1c0.7,0,0.6-0.1,0.6,0.6c0,0.7,0,1.5,0,2.2c0,0.4,0,0.4-0.4,0.4
				c-1.8,0-3.6,0-5.4,0c-0.2,0-0.4,0-0.4,0.3c0,0.1-0.1,0.1-0.2,0.1c-1.4,0.2-2.8,0.1-4.2,0.1c-0.5,0-1-0.1-1.5,0
				c-0.2,0-0.3,0-0.4-0.2c0-0.2-0.2-0.1-0.3-0.1c-1.5,0-3,0-4.5,0c-0.9,0-1.9,0-2.8-0.1c-0.1,0-0.2,0.1-0.2,0.2
				c0,0.2-0.1,0.2-0.3,0.2c-0.4,0-0.9,0-1.3,0c-4.1,0-8.3,0-12.4,0c-0.4,0-0.7,0-1.1-0.3C31.8,61,31.6,61,31.4,61
				c-1.8,0-3.5,0-5.3,0c-0.5,0-1-0.1-1.5-0.1c-0.2,0-0.3,0-0.4,0.2c-0.1,0.2-0.4,0.2-0.6,0.2c-0.4-0.1-0.7-0.1-1,0.1
				c-0.1,0.1-0.3,0.1-0.4,0.1c-0.9,0-1.9,0-2.8,0c-0.4,0-0.8,0-1.2-0.1c-0.1,0-0.2,0-0.2-0.1C17.9,61,17.7,61,17.5,61
				c-1.8,0-3.6,0-5.4,0c-0.4,0-0.4,0-0.4-0.4c0-0.8,0-1.7,0-2.5c0-0.3,0.1-0.4,0.3-0.4c0.3,0,0.6,0,0.9,0c2,0,3.9-0.1,5.9-0.1
				c0.2,0,0.3-0.1,0.3-0.3c0-0.7,0-1.4,0-2.1c0-0.2,0-0.3-0.2-0.4c-0.2-0.1-0.4-0.2-0.5-0.4c-0.1-0.1-0.2-0.1-0.2-0.2
				c0-0.4-0.2-0.2-0.3-0.2c-0.5,0.1-0.9,0.1-1.4,0.1c-1.2,0.1-2.4,0.1-3.6,0.1c-0.5,0-1.1-0.1-1.6-0.1c-0.4,0-0.7-0.3-1-0.6
				c-0.1-0.1-0.1-0.3,0.1-0.4c0.3-0.1,0.6-0.2,0.8-0.2c1.3,0,2.5-0.1,3.8,0c1.5,0,2.9,0,4.4,0c0.3,0,0.5-0.1,0.5-0.4
				c0-0.1,0.1-0.1,0.2-0.1c0.5-0.1,1-0.1,1.5,0c0,0,0.1,0,0.1,0c0.4,0.3,0.8,0.3,1.2,0.3c2.4,0,4.7,0,7.1,0c0.4,0,0.7,0.1,1.1,0.2
				c0.2,0.1,0.4,0.2,0.5,0.4c0.1,0.1,0,0.2,0,0.3c-0.1,0.1-0.1,0.1-0.2,0.2c-0.1,0.1-0.2,0.1-0.1,0.2c0,0.1,0.1,0.1,0.2,0.1
				c0.5,0,1,0,1.5,0c0.2,0,0.3,0,0.5,0c0.1,0,0.2,0.1,0.3,0.2c0,0.2-0.1,0.2-0.2,0.3c-0.5,0.3-1,0.4-1.6,0.5c-1.1,0-2.1,0-3.2,0
				c-0.6,0-1.1-0.1-1.7-0.2c-0.1,0-0.2,0-0.3,0.1c-0.1,0.2-0.3,0.1-0.5,0.1c-0.1,0-0.1,0-0.1,0.2c0,0.3-0.1,0.6-0.1,0.9
				c0,0.4,0,0.8,0,1.2c0,0.2,0.1,0.3,0.3,0.3c0.2,0,0.2-0.2,0.2-0.3c0-0.5,0-0.9,0-1.4c0-0.1,0-0.2,0-0.3c-0.1-0.1-0.1-0.3,0-0.4
				c0.2-0.1,0.4-0.1,0.6,0c0.2,0,0.1,0.2,0.1,0.3c0,0.6,0,1.2,0,1.9C27.1,57.4,27,57.5,27.2,57.6z M56.4,56.3c0-0.3,0-0.7,0-1
				c0-0.3-0.1-0.4-0.4-0.4c-0.6,0-1.3,0-1.9-0.2c-0.3-0.1-0.4,0.3-0.7,0.3c0,0,0,0.1,0,0.1c-0.2,0.7-0.1,1.4-0.1,2.1
				c0,0.2,0.1,0.3,0.3,0.3c0.2,0,0.2-0.2,0.2-0.3c0-0.6,0-1.1,0-1.7c0-0.1,0-0.2,0-0.3c0.1-0.2,0.3-0.1,0.4-0.1c0,0,0.1,0,0.1,0.1
				c-0.1,0.7,0,1.4,0,2c0,0.3,0.1,0.4,0.4,0.4c0.5,0,0.9,0,1.4,0c0.2,0,0.3-0.1,0.3-0.3C56.4,57,56.4,56.6,56.4,56.3z M25.8,55
				c-0.2-0.1-0.4,0-0.5-0.2c0-0.1-0.1,0-0.2,0c-0.7,0.3-1.3,0.2-2,0.2c-0.2,0-0.3,0.1-0.3,0.3c0,0.7,0,1.4,0,2.1
				c0,0.2,0.1,0.3,0.3,0.3c0.4,0,0.8,0,1.2,0c0.4,0,0.4,0,0.4-0.4c0-0.7,0-1.3,0-2c0-0.1,0-0.2,0.1-0.2c0.1,0,0.1,0.1,0.1,0.2
				c0,0.7,0,1.3,0,2c0,0.2,0,0.3,0.3,0.3c0.2,0,0.3-0.1,0.3-0.3c0-0.6,0-1.1,0-1.7C25.3,55.2,25.4,55,25.8,55z M20.1,56.2
				c0-0.5,0-1,0-1.5c0-0.2,0-0.4-0.3-0.4c-0.3,0-0.4,0.1-0.4,0.4c0,0.8,0,1.7,0,2.5c0,0.1,0,0.3,0,0.4c0,0.3,0.2,0.3,0.5,0.3
				c0.3,0,0.3-0.2,0.3-0.4C20.1,57.1,20.1,56.6,20.1,56.2z M57,55.1c0.1,0.2,0.1,0.3,0.1,0.4c0,0.7,0,1.5,0,2.2
				c0,0.2,0.2,0.3,0.3,0.2c0.1-0.1,0.1-0.2,0.1-0.3c0-1,0-2,0-3c0,0,0-0.1,0-0.1c0-0.1-0.1-0.2-0.2-0.2c-0.1,0-0.2,0-0.2,0.2
				c0,0.1,0,0.2,0,0.3c0-0.1,0-0.1-0.1-0.1c0-0.1,0-0.2-0.1-0.2c-0.2,0-0.1,0.2-0.1,0.3c0,0.8,0,1.7,0,2.5c0,0,0,0.1,0,0.1
				c0,0.1,0,0.2,0.1,0.2c0.1,0,0.1-0.1,0.1-0.2c0-0.1,0-0.3,0-0.4C57,56.3,57,55.8,57,55.1z M58.5,56.2
				C58.5,56.2,58.5,56.2,58.5,56.2c0,0.5,0,1,0,1.4c0,0.2,0,0.3,0.2,0.3c0.2,0,0.4,0,0.4-0.3c0-1,0-2,0-3c0-0.2-0.1-0.3-0.3-0.3
				c-0.2,0-0.3,0.1-0.3,0.3C58.5,55.2,58.5,55.7,58.5,56.2z M21,56.2C21,56.2,21,56.2,21,56.2c0,0.5,0,1,0,1.5c0,0.1,0,0.2,0.1,0.3
				c0.2,0,0.4,0.1,0.5,0c0.1-0.1,0.1-0.2,0-0.3c-0.1-0.2-0.1-0.5-0.1-0.7c0-0.7,0-1.5,0-2.2c0-0.2,0-0.3-0.3-0.3
				c-0.2,0-0.3,0.1-0.3,0.3C21,55.2,21,55.7,21,56.2z M22.7,54.6c-0.3,0.6-0.3,1.3-0.2,2c0,0.2,0,0.4,0,0.6c0,0.1,0,0.1,0,0.2
				c0,0.1,0.1,0.2,0.2,0.2c0.1,0,0.1-0.1,0.1-0.2C22.7,56.4,22.7,55.5,22.7,54.6z"/>
		</g>
	</g>
</g>
</svg>
